<svg width="45" height="46" viewBox="0 0 45 46" fill="none" xmlns="http://www.w3.org/2000/svg">
<rect y="24.5195" width="30" height="30" rx="4" transform="rotate(-45 0 24.5195)" fill="#B098F0"/>
<path d="M41.3767 4.8802C36.9272 7.98762 33.1084 11.0042 29.4215 15.1221C27.7956 16.9384 25.9691 19.0884 24.6788 21.1793C23.9549 22.2825 22.6899 23.9874 22.0976 25.7143C20.4862 23.576 18.7714 21.1649 16.9451 19.2085C15.6433 17.8146 11.0728 19.6413 12.599 21.2759C15.3345 24.2046 17.4644 27.6728 20.0998 30.7009C21.2024 31.9662 24.3172 29.9926 25.1105 29.0924C27.7162 26.1257 28.5711 22.1716 30.6364 18.8262C33.7912 13.7093 38.6565 9.82558 43.3853 6.52381C46.5466 4.13556 43.7567 3.22104 41.3809 4.88079" fill="#5238AA"/>
</svg>
