<svg width="131" height="46" viewBox="0 0 131 46" fill="none" xmlns="http://www.w3.org/2000/svg">
<rect y="24.5195" width="30" height="30" rx="4" transform="rotate(-45 0 24.5195)" fill="#B098F0"/>
<path d="M41.3767 4.8802C36.9272 7.98762 33.1084 11.0042 29.4215 15.1221C27.7956 16.9384 25.9691 19.0884 24.6788 21.1793C23.9549 22.2825 22.6899 23.9874 22.0976 25.7143C20.4862 23.576 18.7714 21.1649 16.9451 19.2085C15.6433 17.8146 11.0728 19.6413 12.599 21.2759C15.3345 24.2046 17.4644 27.6728 20.0998 30.7009C21.2024 31.9662 24.3172 29.9926 25.1105 29.0924C27.7162 26.1257 28.5711 22.1716 30.6364 18.8262C33.7912 13.7093 38.6565 9.82558 43.3853 6.52381C46.5466 4.13556 43.7567 3.22104 41.3809 4.88079" fill="#5238AA"/>
<path d="M56.7148 18.2031V31H54.3066V18.2031H56.7148ZM60.6875 18.2031V20.1104H50.3779V18.2031H60.6875ZM60.3359 26.3418V26.1572C60.3359 25.46 60.4355 24.8184 60.6348 24.2324C60.834 23.6406 61.124 23.1279 61.5049 22.6943C61.8857 22.2607 62.3516 21.9238 62.9023 21.6836C63.4531 21.4375 64.0801 21.3145 64.7832 21.3145C65.498 21.3145 66.1309 21.4375 66.6816 21.6836C67.2383 21.9238 67.707 22.2607 68.0879 22.6943C68.4688 23.1279 68.7588 23.6406 68.958 24.2324C69.1572 24.8184 69.2568 25.46 69.2568 26.1572V26.3418C69.2568 27.0332 69.1572 27.6748 68.958 28.2666C68.7588 28.8525 68.4688 29.3652 68.0879 29.8047C67.707 30.2383 67.2412 30.5752 66.6904 30.8154C66.1396 31.0557 65.5098 31.1758 64.8008 31.1758C64.0977 31.1758 63.4678 31.0557 62.9111 30.8154C62.3545 30.5752 61.8857 30.2383 61.5049 29.8047C61.124 29.3652 60.834 28.8525 60.6348 28.2666C60.4355 27.6748 60.3359 27.0332 60.3359 26.3418ZM62.6562 26.1572V26.3418C62.6562 26.7578 62.6973 27.1475 62.7793 27.5107C62.8613 27.874 62.9873 28.1934 63.1572 28.4688C63.3271 28.7441 63.5469 28.9609 63.8164 29.1191C64.0918 29.2715 64.4199 29.3477 64.8008 29.3477C65.1758 29.3477 65.498 29.2715 65.7676 29.1191C66.0371 28.9609 66.2568 28.7441 66.4268 28.4688C66.6025 28.1934 66.7314 27.874 66.8135 27.5107C66.8955 27.1475 66.9365 26.7578 66.9365 26.3418V26.1572C66.9365 25.7471 66.8955 25.3633 66.8135 25.0059C66.7314 24.6426 66.6025 24.3232 66.4268 24.0479C66.2568 23.7666 66.0342 23.5469 65.7588 23.3887C65.4893 23.2246 65.1641 23.1426 64.7832 23.1426C64.4082 23.1426 64.0859 23.2246 63.8164 23.3887C63.5469 23.5469 63.3271 23.7666 63.1572 24.0479C62.9873 24.3232 62.8613 24.6426 62.7793 25.0059C62.6973 25.3633 62.6562 25.7471 62.6562 26.1572Z" fill="#B098F0"/>
<path d="M110.126 29.1016V31H103.692V29.1016H110.126ZM104.422 18.2031V31H102.005V18.2031H104.422ZM114.028 21.4902V31H111.699V21.4902H114.028ZM111.541 19.0029C111.541 18.6572 111.658 18.3701 111.893 18.1416C112.133 17.9131 112.455 17.7988 112.859 17.7988C113.264 17.7988 113.583 17.9131 113.817 18.1416C114.058 18.3701 114.178 18.6572 114.178 19.0029C114.178 19.3428 114.058 19.627 113.817 19.8555C113.583 20.084 113.264 20.1982 112.859 20.1982C112.455 20.1982 112.133 20.084 111.893 19.8555C111.658 19.627 111.541 19.3428 111.541 19.0029ZM121.473 28.3984C121.473 28.1992 121.42 28.0205 121.314 27.8623C121.209 27.7041 121.01 27.5605 120.717 27.4316C120.43 27.2969 120.008 27.1709 119.451 27.0537C118.959 26.9482 118.505 26.8164 118.089 26.6582C117.673 26.5 117.315 26.3096 117.017 26.0869C116.718 25.8584 116.483 25.5918 116.313 25.2871C116.149 24.9766 116.067 24.6191 116.067 24.2148C116.067 23.8223 116.152 23.4531 116.322 23.1074C116.492 22.7559 116.738 22.4482 117.061 22.1846C117.383 21.915 117.775 21.7041 118.238 21.5518C118.701 21.3936 119.223 21.3145 119.803 21.3145C120.611 21.3145 121.306 21.4463 121.886 21.71C122.472 21.9736 122.92 22.3369 123.23 22.7998C123.541 23.2568 123.696 23.7725 123.696 24.3467H121.376C121.376 24.0947 121.317 23.8662 121.2 23.6611C121.089 23.4561 120.916 23.292 120.682 23.1689C120.447 23.04 120.151 22.9756 119.794 22.9756C119.472 22.9756 119.199 23.0283 118.977 23.1338C118.76 23.2393 118.596 23.377 118.484 23.5469C118.373 23.7168 118.317 23.9043 118.317 24.1094C118.317 24.2617 118.347 24.3994 118.405 24.5225C118.47 24.6396 118.572 24.748 118.713 24.8477C118.854 24.9473 119.044 25.0381 119.284 25.1201C119.53 25.2021 119.832 25.2812 120.189 25.3574C120.898 25.498 121.517 25.6855 122.044 25.9199C122.577 26.1484 122.993 26.4531 123.292 26.834C123.591 27.2148 123.74 27.7012 123.74 28.293C123.74 28.7148 123.649 29.1016 123.468 29.4531C123.286 29.7988 123.022 30.1006 122.677 30.3584C122.331 30.6162 121.918 30.8184 121.438 30.9648C120.957 31.1055 120.415 31.1758 119.812 31.1758C118.938 31.1758 118.2 31.0205 117.597 30.71C116.993 30.3936 116.536 29.9951 116.226 29.5146C115.915 29.0283 115.76 28.5244 115.76 28.0029H117.983C118.001 28.3721 118.101 28.668 118.282 28.8906C118.464 29.1133 118.692 29.2744 118.968 29.374C119.249 29.4678 119.545 29.5146 119.855 29.5146C120.207 29.5146 120.503 29.4678 120.743 29.374C120.983 29.2744 121.165 29.1426 121.288 28.9785C121.411 28.8086 121.473 28.6152 121.473 28.3984ZM130.007 21.4902V23.1602H124.558V21.4902H130.007ZM126.017 19.1523H128.346V28.2578C128.346 28.5391 128.384 28.7559 128.46 28.9082C128.536 29.0605 128.65 29.1631 128.803 29.2158C128.955 29.2686 129.137 29.2949 129.348 29.2949C129.5 29.2949 129.641 29.2861 129.77 29.2686C129.898 29.251 130.007 29.2334 130.095 29.2158L130.104 30.9561C129.91 31.0205 129.69 31.0732 129.444 31.1143C129.204 31.1553 128.932 31.1758 128.627 31.1758C128.105 31.1758 127.648 31.0879 127.256 30.9121C126.863 30.7305 126.559 30.4404 126.342 30.042C126.125 29.6377 126.017 29.1045 126.017 28.4424V19.1523Z" fill="#372475"/>
<path d="M79.4258 31H76.666L76.6836 29.1016H79.4258C80.1699 29.1016 80.7939 28.9375 81.2979 28.6094C81.8018 28.2754 82.1826 27.7979 82.4404 27.1768C82.6982 26.5498 82.8271 25.7998 82.8271 24.9268V24.2676C82.8271 23.5938 82.7539 22.999 82.6074 22.4834C82.4609 21.9678 82.2441 21.5342 81.957 21.1826C81.6758 20.8311 81.3271 20.5645 80.9111 20.3828C80.4951 20.2012 80.0176 20.1104 79.4785 20.1104H76.6133V18.2031H79.4785C80.334 18.2031 81.1133 18.3467 81.8164 18.6338C82.5254 18.9209 83.1377 19.334 83.6533 19.873C84.1748 20.4062 84.5732 21.0449 84.8486 21.7891C85.1299 22.5332 85.2705 23.3652 85.2705 24.2852V24.9268C85.2705 25.8408 85.1299 26.6729 84.8486 27.4229C84.5732 28.167 84.1748 28.8057 83.6533 29.3389C83.1377 29.8721 82.5225 30.2822 81.8076 30.5693C81.0928 30.8564 80.2988 31 79.4258 31ZM78.0195 18.2031V31H75.6025V18.2031H78.0195ZM86.7383 26.3418V26.1572C86.7383 25.46 86.8379 24.8184 87.0371 24.2324C87.2363 23.6406 87.5264 23.1279 87.9072 22.6943C88.2881 22.2607 88.7539 21.9238 89.3047 21.6836C89.8555 21.4375 90.4824 21.3145 91.1855 21.3145C91.9004 21.3145 92.5332 21.4375 93.084 21.6836C93.6406 21.9238 94.1094 22.2607 94.4902 22.6943C94.8711 23.1279 95.1611 23.6406 95.3604 24.2324C95.5596 24.8184 95.6592 25.46 95.6592 26.1572V26.3418C95.6592 27.0332 95.5596 27.6748 95.3604 28.2666C95.1611 28.8525 94.8711 29.3652 94.4902 29.8047C94.1094 30.2383 93.6436 30.5752 93.0928 30.8154C92.542 31.0557 91.9121 31.1758 91.2031 31.1758C90.5 31.1758 89.8701 31.0557 89.3135 30.8154C88.7568 30.5752 88.2881 30.2383 87.9072 29.8047C87.5264 29.3652 87.2363 28.8525 87.0371 28.2666C86.8379 27.6748 86.7383 27.0332 86.7383 26.3418ZM89.0586 26.1572V26.3418C89.0586 26.7578 89.0996 27.1475 89.1816 27.5107C89.2637 27.874 89.3896 28.1934 89.5596 28.4688C89.7295 28.7441 89.9492 28.9609 90.2188 29.1191C90.4941 29.2715 90.8223 29.3477 91.2031 29.3477C91.5781 29.3477 91.9004 29.2715 92.1699 29.1191C92.4395 28.9609 92.6592 28.7441 92.8291 28.4688C93.0049 28.1934 93.1338 27.874 93.2158 27.5107C93.2979 27.1475 93.3389 26.7578 93.3389 26.3418V26.1572C93.3389 25.7471 93.2979 25.3633 93.2158 25.0059C93.1338 24.6426 93.0049 24.3232 92.8291 24.0479C92.6592 23.7666 92.4365 23.5469 92.1611 23.3887C91.8916 23.2246 91.5664 23.1426 91.1855 23.1426C90.8105 23.1426 90.4883 23.2246 90.2188 23.3887C89.9492 23.5469 89.7295 23.7666 89.5596 24.0479C89.3896 24.3232 89.2637 24.6426 89.1816 25.0059C89.0996 25.3633 89.0586 25.7471 89.0586 26.1572Z" fill="#5238AA"/>
</svg>
